<?xml version="1.0" encoding="UTF-8" standalone="no" ?>
<!DOCTYPE svg PUBLIC "-//W3C//DTD SVG 1.1//EN" "http://www.w3.org/Graphics/SVG/1.1/DTD/svg11.dtd">
<svg xmlns="http://www.w3.org/2000/svg" xmlns:xlink="http://www.w3.org/1999/xlink" version="1.1" width="284.4247589111328" height="196.432" xml:space="preserve">
<desc>Created with Fabric.js 1.6.0-rc.1</desc>
<defs></defs>
<g style="stroke: none; stroke-width: 1; stroke-dasharray: none; stroke-linecap: butt; stroke-linejoin: miter; stroke-miterlimit: 10; fill: none; fill-rule: nonzero; opacity: 1;" transform="translate(65 10) scale(0.38 0.38)" >
  <path d="M 303.673 253.518 c -11.151 -37.754 -67.121 -33.566 -91.279 -44.408 c -24.157 -10.842 -20.386 -47.219 -23.449 -53.548 h -58.932 c -3.058 6.329 0.714 42.711 -23.449 53.548 c -24.157 10.842 -80.133 6.655 -91.279 44.408 c -6.149 20.824 -5.857 27.193 -7.554 50.26 c 0 0 76.8 15.187 150.014 15.187 s 153.488 -15.187 153.488 -15.187 C 309.53 280.705 309.822 274.342 303.673 253.518 z" style="stroke: none; stroke-width: 1; stroke-dasharray: none; stroke-linecap: butt; stroke-linejoin: miter; stroke-miterlimit: 10; fill: #1a1a19; fill-rule: nonzero; opacity: 1;" transform=" matrix(1 0 0 1 0 0) " stroke-linecap="round" />
  <path d="M 303.673 253.518 c -11.151 -37.754 -67.121 -33.566 -91.279 -44.408 c -24.157 -10.842 -20.386 -47.219 -23.449 -53.548 H 157.74 c 0 0 -0.719 51.024 23.438 61.866 s 80.133 6.655 91.279 44.408 c 5.857 19.83 5.868 26.552 7.324 47.073 c 19.234 -2.816 31.442 -5.126 31.442 -5.126 C 309.53 280.705 309.822 274.342 303.673 253.518 z" style="stroke: none; stroke-width: 1; stroke-dasharray: none; stroke-linecap: butt; stroke-linejoin: miter; stroke-miterlimit: 10; fill: #121212; fill-rule: nonzero; opacity: 1;" transform=" matrix(1 0 0 1 0 0) " stroke-linecap="round" />
  <path d="M 174.748 318.7 c 10.348 -26.67 24.163 -73.95 26.366 -119.466 h -83.427 c 2.203 45.572 16.058 92.909 26.423 119.562 c 4.541 0.112 9.094 0.169 13.636 0.169 C 163.383 318.964 169.065 318.863 174.748 318.7 z" style="stroke: none; stroke-width: 1; stroke-dasharray: none; stroke-linecap: butt; stroke-linejoin: miter; stroke-miterlimit: 10; fill: #EAEAE1; fill-rule: nonzero; opacity: 1;" transform=" matrix(1 0 0 1 0 0) " stroke-linecap="round" />
  <polygon points="196.91,216.22 176.11,236.12 171.19,205.74 " style="stroke: none; stroke-width: 1; stroke-dasharray: none; stroke-linecap: butt; stroke-linejoin: miter; stroke-miterlimit: 10; fill: #C6C5AF; fill-rule: nonzero; opacity: 1;" transform="  matrix(1 0 0 1 0 0) "/>
  <polygon points="121.01,216.22 142.82,236.12 146.8,205.52 " style="stroke: none; stroke-width: 1; stroke-dasharray: none; stroke-linecap: butt; stroke-linejoin: miter; stroke-miterlimit: 10; fill: #C6C5AF; fill-rule: nonzero; opacity: 1;" transform="  matrix(1 0 0 1 0 0) "/>
  <polygon points="172,205.52 146.8,205.52 144.88,211.7 173.96,211.87 " style="stroke: none; stroke-width: 1; stroke-dasharray: none; stroke-linecap: butt; stroke-linejoin: miter; stroke-miterlimit: 10; fill: #C6C5AF; fill-rule: nonzero; opacity: 1;" transform="  matrix(1 0 0 1 0 0) "/>
  <polygon points="146.8,205.52 144.88,211.7 145.99,212.42 " style="stroke: none; stroke-width: 1; stroke-dasharray: none; stroke-linecap: butt; stroke-linejoin: miter; stroke-miterlimit: 10; fill: #AAA88F; fill-rule: nonzero; opacity: 1;" transform="  matrix(1 0 0 1 0 0) "/>
  <polygon points="173.96,211.87 171.19,205.74 172.33,212.8 " style="stroke: none; stroke-width: 1; stroke-dasharray: none; stroke-linecap: butt; stroke-linejoin: miter; stroke-miterlimit: 10; fill: #AAA88F; fill-rule: nonzero; opacity: 1;" transform="  matrix(1 0 0 1 0 0) "/>
  <path d="M 173.433 318.739 l 0.579 -7.987 l -6.081 -80.51 h -16.024 l -7.099 80.515 l 0.585 8.066 c 4.12 0.084 8.24 0.141 12.354 0.141 C 162.95 318.964 168.188 318.88 173.433 318.739 z" style="stroke: none; stroke-width: 1; stroke-dasharray: none; stroke-linecap: butt; stroke-linejoin: miter; stroke-miterlimit: 10; fill: #4C4C4C; fill-rule: nonzero; opacity: 1;" transform=" matrix(1 0 0 1 0 0) " stroke-linecap="round" />
  <polygon points="151.97,230.6 167.93,230.24 168.26,234.73 " style="stroke: none; stroke-width: 1; stroke-dasharray: none; stroke-linecap: butt; stroke-linejoin: miter; stroke-miterlimit: 10; fill: #3A3A38; fill-rule: nonzero; opacity: 1;" transform="  matrix(1 0 0 1 0 0) "/>
  <polygon points="140.54,208.18 178.25,208.16 176.11,221.03 167.59,230.6 151.97,230.6 142.69,221.03 " style="stroke: none; stroke-width: 1; stroke-dasharray: none; stroke-linecap: butt; stroke-linejoin: miter; stroke-miterlimit: 10; fill: #4C4C4C; fill-rule: nonzero; opacity: 1;" transform="  matrix(1 0 0 1 0 0) "/>
  <path d="M 146.796 205.518 l -25.72 -13.984 c 0 0 -3.389 4.817 -11.843 16.21 l 31.723 22.853 l 2.704 -14.923 L 146.796 205.518 z" style="stroke: none; stroke-width: 1; stroke-dasharray: none; stroke-linecap: butt; stroke-linejoin: miter; stroke-miterlimit: 10; fill: #EAEAE1; fill-rule: nonzero; opacity: 1;" transform=" matrix(1 0 0 1 0 0) " stroke-linecap="round" />
  <path d="M 171.122 205.518 l 25.72 -13.984 c 0 0 3.389 4.817 11.843 16.21 l -31.723 22.853 l -2.704 -14.923 L 171.122 205.518 z" style="stroke: none; stroke-width: 1; stroke-dasharray: none; stroke-linecap: butt; stroke-linejoin: miter; stroke-miterlimit: 10; fill: #EAEAE1; fill-rule: nonzero; opacity: 1;" transform=" matrix(1 0 0 1 0 0) " stroke-linecap="round" />
  <path d="M 196.842 191.534 l -25.72 13.984 l 1.776 5.772 c 2.372 2.602 5.109 4.716 8.279 6.138 c 2.799 1.253 6.02 2.31 9.549 3.249 l 17.947 -12.927 C 200.232 196.351 196.842 191.534 196.842 191.534 z" style="stroke: none; stroke-width: 1; stroke-dasharray: none; stroke-linecap: butt; stroke-linejoin: miter; stroke-miterlimit: 10; fill: #E0DBD3; fill-rule: nonzero; opacity: 1;" transform=" matrix(1 0 0 1 0 0) " stroke-linecap="round" />
  <path d="M 233.292 250.73 l -15.333 -5.559 l 13.776 -3.794 l -13.13 -29.969 l -40.749 107.208 c 4.778 -0.163 9.549 -0.377 14.293 -0.635 L 233.292 250.73 z" style="stroke: none; stroke-width: 1; stroke-dasharray: none; stroke-linecap: butt; stroke-linejoin: miter; stroke-miterlimit: 10; fill: #121212; fill-rule: nonzero; opacity: 1;" transform=" matrix(1 0 0 1 0 0) " stroke-linecap="round" />
  <path d="M 86.189 241.372 l 13.776 3.794 l -15.333 5.559 l 41.216 67.369 c 4.716 0.247 9.471 0.444 14.237 0.59 L 99.24 211.734 L 86.189 241.372 z" style="stroke: none; stroke-width: 1; stroke-dasharray: none; stroke-linecap: butt; stroke-linejoin: miter; stroke-miterlimit: 10; fill: #121212; fill-rule: nonzero; opacity: 1;" transform=" matrix(1 0 0 1 0 0) " stroke-linecap="round" />
  <path d="M 228.981 251.562 l -14.833 -6.239 l 13.461 -4.783 l -9.004 -29.137 l -16.907 -13.147 l -32.111 120.579 c 6.97 -0.146 13.962 -0.41 20.903 -0.776 L 228.981 251.562 z" style="stroke: none; stroke-width: 1; stroke-dasharray: none; stroke-linecap: butt; stroke-linejoin: miter; stroke-miterlimit: 10; fill: #1f1f1d; fill-rule: nonzero; opacity: 1;" transform=" matrix(1 0 0 1 0 0) " stroke-linecap="round" />
  <path d="M 201.693 198.256 l -6.278 23.567 c 8.538 1.945 18.385 3.507 28.171 5.711 l -4.985 -16.131 L 201.693 198.256 z" style="stroke: none; stroke-width: 1; stroke-dasharray: none; stroke-linecap: butt; stroke-linejoin: miter; stroke-miterlimit: 10; fill: #1a1a19; fill-rule: nonzero; opacity: 1;" transform=" matrix(1 0 0 1 0 0) " stroke-linecap="round" />
  <path d="M 99.235 211.74 l -8.926 28.806 l 13.461 4.783 l -14.833 6.239 l 38.563 66.621 c 6.902 0.343 13.877 0.585 20.847 0.703 L 116.22 198.267 L 99.235 211.74 z" style="stroke: none; stroke-width: 1; stroke-dasharray: none; stroke-linecap: butt; stroke-linejoin: miter; stroke-miterlimit: 10; fill: #1f1f1d; fill-rule: nonzero; opacity: 1;" transform=" matrix(1 0 0 1 0 0) " stroke-linecap="round" />
  <ellipse cx="228.52599999999998" cy="118.55900000000001" rx="21.386" ry="11.629" style="stroke: none; stroke-width: 1; stroke-dasharray: none; stroke-linecap: butt; stroke-linejoin: miter; stroke-miterlimit: 10; fill: #CCA483; fill-rule: nonzero; opacity: 1;" transform=" matrix(-0.177 0.9842 -0.9842 -0.177 385.6561 -85.3711) "/>
  <ellipse cx="90.269" cy="118.566" rx="11.629" ry="21.386" style="stroke: none; stroke-width: 1; stroke-dasharray: none; stroke-linecap: butt; stroke-linejoin: miter; stroke-miterlimit: 10; fill: #DBB491; fill-rule: nonzero; opacity: 1;" transform=" matrix(-0.9842 0.177 -0.177 -0.9842 200.0903 219.2807) "/>
  <path d="M 223.641 47.365 H 159.42 H 95.233 c 0 0 -35.989 146.614 64.187 160.806 C 259.636 193.979 223.641 47.365 223.641 47.365 z" style="stroke: none; stroke-width: 1; stroke-dasharray: none; stroke-linecap: butt; stroke-linejoin: miter; stroke-miterlimit: 10; fill: #DBB491; fill-rule: nonzero; opacity: 1;" transform=" matrix(1 0 0 1 0 0) " stroke-linecap="round" />
  <path d="M 159.42 208.171 c 100.216 -14.192 64.221 -160.806 64.221 -160.806 h -15.024 c 4.114 61.242 9.808 93.774 -13.815 129.24 C 176.085 204.708 159.42 208.171 159.42 208.171 z" style="stroke: none; stroke-width: 1; stroke-dasharray: none; stroke-linecap: butt; stroke-linejoin: miter; stroke-miterlimit: 10; fill: #CCA483; fill-rule: nonzero; opacity: 1;" transform=" matrix(1 0 0 1 0 0) " stroke-linecap="round" />
  <path d="M 187.838 5.48 c 0 0 -19.824 -9.33 -46.477 -3.642 c -19.953 4.26 -52.423 17.829 -59.73 46.893 c 0 0 -10.932 47.483 7.683 67.931 c 0 0 -0.916 -18.548 0.956 -33.313 c 0 0 11.174 4.946 33.69 4.659 c 30.188 -0.382 59.444 -12.776 68.442 -26.355 c 0 0 -1.034 19.532 -10.876 27.502 c 0 0 34.522 -5.396 44.729 -25.883 c 0 0 3.417 17.935 3.417 51.159 c 0 0 5.39 -7.509 6.649 -19.605 c 2.855 -27.44 -2.333 -65.334 -22.876 -64.069 C 213.446 30.756 204.745 13.49 187.838 5.48 z" style="stroke: none; stroke-width: 1; stroke-dasharray: none; stroke-linecap: butt; stroke-linejoin: miter; stroke-miterlimit: 10; fill: #393C3D; fill-rule: nonzero; opacity: 1;" transform=" matrix(1 0 0 1 0 0) " stroke-linecap="round" />
  <path d="M 181.526 89.154 c 9.836 -7.976 10.876 -27.502 10.876 -27.502 c -8.999 13.574 -38.248 25.967 -68.442 26.355 c -21.763 0.275 -32.931 -4.333 -33.651 -4.643 c 1.433 0.613 44.156 18.554 91.672 -3.884 c 0 0 -2.58 9.527 -8.139 12.804 c 0 0 43.869 -0.793 52.418 -29.008 C 216.054 83.758 181.526 89.154 181.526 89.154 z" style="stroke: none; stroke-width: 1; stroke-dasharray: none; stroke-linecap: butt; stroke-linejoin: miter; stroke-miterlimit: 10; fill: #CCA483; fill-rule: nonzero; opacity: 1;" transform=" matrix(1 0 0 1 0 0) " stroke-linecap="round" />
</g>
  <g transform="translate(142.72 160.72) scale(1.02 1)">
   <text font-family="zwodrei - free" font-size="40" font-weight="normal" style="stroke: none; stroke-width: 1; stroke-dasharray: none; stroke-linecap: butt; stroke-linejoin: miter; stroke-miterlimit: 10; fill: #000000; fill-rule: nonzero; opacity: 1;" ><tspan x="-129.62" y="8.98" style="stroke: none; stroke-width: 0; stroke-dasharray: none; stroke-linecap: butt; stroke-linejoin: miter; stroke-miterlimit: 4; fill: #000000; fill-rule: ; opacity: 1;">A</tspan><tspan x="-103.26" y="8.98" style="stroke: none; stroke-width: 0; stroke-dasharray: none; stroke-linecap: butt; stroke-linejoin: miter; stroke-miterlimit: 4; fill: #000000; fill-rule: ; opacity: 1;">D</tspan><tspan x="-75.14" y="8.98" style="stroke: none; stroke-width: 0; stroke-dasharray: none; stroke-linecap: butt; stroke-linejoin: miter; stroke-miterlimit: 4; fill: #000000; fill-rule: ; opacity: 1;">M</tspan><tspan x="-41.86" y="8.98" style="stroke: none; stroke-width: 0; stroke-dasharray: none; stroke-linecap: butt; stroke-linejoin: miter; stroke-miterlimit: 4; fill: #000000; fill-rule: ; opacity: 1;">I</tspan><tspan x="-30.26" y="8.98" style="stroke: none; stroke-width: 0; stroke-dasharray: none; stroke-linecap: butt; stroke-linejoin: miter; stroke-miterlimit: 4; fill: #000000; fill-rule: ; opacity: 1;">N</tspan><tspan x="-1.7" y="8.98" style="stroke: none; stroke-width: 0; stroke-dasharray: none; stroke-linecap: butt; stroke-linejoin: miter; stroke-miterlimit: 4; fill: #000000; fill-rule: ; opacity: 1;"> </tspan><tspan x="8.7" y="8.98" style="stroke: none; stroke-width: 0; stroke-dasharray: none; stroke-linecap: butt; stroke-linejoin: miter; stroke-miterlimit: 4; fill: #000000; fill-rule: ; opacity: 1;">P</tspan><tspan x="32.18" y="8.98" style="stroke: none; stroke-width: 0; stroke-dasharray: none; stroke-linecap: butt; stroke-linejoin: miter; stroke-miterlimit: 4; fill: #000000; fill-rule: ; opacity: 1;">A</tspan><tspan x="58.54" y="8.98" style="stroke: none; stroke-width: 0; stroke-dasharray: none; stroke-linecap: butt; stroke-linejoin: miter; stroke-miterlimit: 4; fill: #000000; fill-rule: ; opacity: 1;">N</tspan><tspan x="87.1" y="8.98" style="stroke: none; stroke-width: 0; stroke-dasharray: none; stroke-linecap: butt; stroke-linejoin: miter; stroke-miterlimit: 4; fill: #000000; fill-rule: ; opacity: 1;">E</tspan><tspan x="108.26" y="8.98" style="stroke: none; stroke-width: 0; stroke-dasharray: none; stroke-linecap: butt; stroke-linejoin: miter; stroke-miterlimit: 4; fill: #000000; fill-rule: ; opacity: 1;">L</tspan></text>
 </g>
</svg>