<?xml version="1.0" encoding="UTF-8" standalone="no" ?>
<!DOCTYPE svg PUBLIC "-//W3C//DTD SVG 1.1//EN" "http://www.w3.org/Graphics/SVG/1.1/DTD/svg11.dtd">
<svg xmlns="http://www.w3.org/2000/svg" xmlns:xlink="http://www.w3.org/1999/xlink" version="1.1" width="443.3984375" height="137.99" xml:space="preserve">
<desc>Created with Fabric.js 1.6.0-rc.1</desc>
<defs></defs>
  <g transform="translate(282.18 62.72)">
   <text font-family="Arial" font-size="40" font-weight="normal" style="stroke: none; stroke-width: 1; stroke-dasharray: none; stroke-linecap: butt; stroke-linejoin: miter; stroke-miterlimit: 10; fill: #faf5fa; fill-rule: nonzero; opacity: 1;" ><tspan x="-136.68" y="8.98" style="stroke: none; stroke-width: 0; stroke-dasharray: none; stroke-linecap: butt; stroke-linejoin: miter; stroke-miterlimit: 4; fill: #faf5fa; fill-rule: ; opacity: 1;">F</tspan><tspan x="-112.25" y="8.98" style="stroke: none; stroke-width: 0; stroke-dasharray: none; stroke-linecap: butt; stroke-linejoin: miter; stroke-miterlimit: 4; fill: #faf5fa; fill-rule: ; opacity: 1;">A</tspan><tspan x="-85.57" y="8.98" style="stroke: none; stroke-width: 0; stroke-dasharray: none; stroke-linecap: butt; stroke-linejoin: miter; stroke-miterlimit: 4; fill: #faf5fa; fill-rule: ; opacity: 1;">S</tspan><tspan x="-58.89" y="8.98" style="stroke: none; stroke-width: 0; stroke-dasharray: none; stroke-linecap: butt; stroke-linejoin: miter; stroke-miterlimit: 4; fill: #faf5fa; fill-rule: ; opacity: 1;">H</tspan><tspan x="-30" y="8.98" style="stroke: none; stroke-width: 0; stroke-dasharray: none; stroke-linecap: butt; stroke-linejoin: miter; stroke-miterlimit: 4; fill: #faf5fa; fill-rule: ; opacity: 1;">I</tspan><tspan x="-18.89" y="8.98" style="stroke: none; stroke-width: 0; stroke-dasharray: none; stroke-linecap: butt; stroke-linejoin: miter; stroke-miterlimit: 4; fill: #faf5fa; fill-rule: ; opacity: 1;">O</tspan><tspan x="12.23" y="8.98" style="stroke: none; stroke-width: 0; stroke-dasharray: none; stroke-linecap: butt; stroke-linejoin: miter; stroke-miterlimit: 4; fill: #faf5fa; fill-rule: ; opacity: 1;">N</tspan><tspan x="41.11" y="8.98" style="stroke: none; stroke-width: 0; stroke-dasharray: none; stroke-linecap: butt; stroke-linejoin: miter; stroke-miterlimit: 4; fill: #faf5fa; fill-rule: ; opacity: 1;"> </tspan><tspan x="52.23" y="8.98" style="stroke: none; stroke-width: 0; stroke-dasharray: none; stroke-linecap: butt; stroke-linejoin: miter; stroke-miterlimit: 4; fill: #faf5fa; fill-rule: ; opacity: 1;">H</tspan><tspan x="81.11" y="8.98" style="stroke: none; stroke-width: 0; stroke-dasharray: none; stroke-linecap: butt; stroke-linejoin: miter; stroke-miterlimit: 4; fill: #faf5fa; fill-rule: ; opacity: 1;">U</tspan><tspan x="110" y="8.98" style="stroke: none; stroke-width: 0; stroke-dasharray: none; stroke-linecap: butt; stroke-linejoin: miter; stroke-miterlimit: 4; fill: #faf5fa; fill-rule: ; opacity: 1;">B</tspan></text>
 </g>
  <g transform="translate(286.59 101.91) scale(0.79 0.82)">
   <text font-family="ADAMCG PRO" font-size="40" font-weight="normal" style="stroke: none; stroke-width: 1; stroke-dasharray: none; stroke-linecap: butt; stroke-linejoin: miter; stroke-miterlimit: 10; fill: #f5f2f5; fill-rule: nonzero; opacity: 1;" ><tspan x="-186.33" y="8.98" style="stroke: none; stroke-width: 0; stroke-dasharray: none; stroke-linecap: butt; stroke-linejoin: miter; stroke-miterlimit: 4; fill: #f5f2f5; fill-rule: ; opacity: 1;">T</tspan><tspan x="-162.97" y="8.98" style="stroke: none; stroke-width: 0; stroke-dasharray: none; stroke-linecap: butt; stroke-linejoin: miter; stroke-miterlimit: 4; fill: #f5f2f5; fill-rule: ; opacity: 1;">h</tspan><tspan x="-135.66" y="8.98" style="stroke: none; stroke-width: 0; stroke-dasharray: none; stroke-linecap: butt; stroke-linejoin: miter; stroke-miterlimit: 4; fill: #f5f2f5; fill-rule: ; opacity: 1;">e</tspan><tspan x="-112.4" y="8.98" style="stroke: none; stroke-width: 0; stroke-dasharray: none; stroke-linecap: butt; stroke-linejoin: miter; stroke-miterlimit: 4; fill: #f5f2f5; fill-rule: ; opacity: 1;"> </tspan><tspan x="-100.41" y="8.98" style="stroke: none; stroke-width: 0; stroke-dasharray: none; stroke-linecap: butt; stroke-linejoin: miter; stroke-miterlimit: 4; fill: #f5f2f5; fill-rule: ; opacity: 1;">o</tspan><tspan x="-66.46" y="8.98" style="stroke: none; stroke-width: 0; stroke-dasharray: none; stroke-linecap: butt; stroke-linejoin: miter; stroke-miterlimit: 4; fill: #f5f2f5; fill-rule: ; opacity: 1;">n</tspan><tspan x="-36.95" y="8.98" style="stroke: none; stroke-width: 0; stroke-dasharray: none; stroke-linecap: butt; stroke-linejoin: miter; stroke-miterlimit: 4; fill: #f5f2f5; fill-rule: ; opacity: 1;">l</tspan><tspan x="-16.52" y="8.98" style="stroke: none; stroke-width: 0; stroke-dasharray: none; stroke-linecap: butt; stroke-linejoin: miter; stroke-miterlimit: 4; fill: #f5f2f5; fill-rule: ; opacity: 1;">i</tspan><tspan x="-5.74" y="8.98" style="stroke: none; stroke-width: 0; stroke-dasharray: none; stroke-linecap: butt; stroke-linejoin: miter; stroke-miterlimit: 4; fill: #f5f2f5; fill-rule: ; opacity: 1;">n</tspan><tspan x="23.77" y="8.98" style="stroke: none; stroke-width: 0; stroke-dasharray: none; stroke-linecap: butt; stroke-linejoin: miter; stroke-miterlimit: 4; fill: #f5f2f5; fill-rule: ; opacity: 1;">e</tspan><tspan x="47.03" y="8.98" style="stroke: none; stroke-width: 0; stroke-dasharray: none; stroke-linecap: butt; stroke-linejoin: miter; stroke-miterlimit: 4; fill: #f5f2f5; fill-rule: ; opacity: 1;"> </tspan><tspan x="59.02" y="8.98" style="stroke: none; stroke-width: 0; stroke-dasharray: none; stroke-linecap: butt; stroke-linejoin: miter; stroke-miterlimit: 4; fill: #f5f2f5; fill-rule: ; opacity: 1;">s</tspan><tspan x="80.14" y="8.98" style="stroke: none; stroke-width: 0; stroke-dasharray: none; stroke-linecap: butt; stroke-linejoin: miter; stroke-miterlimit: 4; fill: #f5f2f5; fill-rule: ; opacity: 1;">t</tspan><tspan x="103.5" y="8.98" style="stroke: none; stroke-width: 0; stroke-dasharray: none; stroke-linecap: butt; stroke-linejoin: miter; stroke-miterlimit: 4; fill: #f5f2f5; fill-rule: ; opacity: 1;">o</tspan><tspan x="137.44" y="8.98" style="stroke: none; stroke-width: 0; stroke-dasharray: none; stroke-linecap: butt; stroke-linejoin: miter; stroke-miterlimit: 4; fill: #f5f2f5; fill-rule: ; opacity: 1;">r</tspan><tspan x="163.07" y="8.98" style="stroke: none; stroke-width: 0; stroke-dasharray: none; stroke-linecap: butt; stroke-linejoin: miter; stroke-miterlimit: 4; fill: #f5f2f5; fill-rule: ; opacity: 1;">e</tspan></text>
 </g>
<g style="stroke: none; stroke-width: 1; stroke-dasharray: none; stroke-linecap: butt; stroke-linejoin: miter; stroke-miterlimit: 10; fill: none; fill-rule: nonzero; opacity: 1;" transform="translate(10 10) scale(0.23 0.23)" >
  <polygon points="482.36,8.08 29.64,8.08 8.08,81.63 8.08,137.43 503.92,137.43 503.92,81.63 " style="stroke: none; stroke-width: 1; stroke-dasharray: none; stroke-linecap: butt; stroke-linejoin: miter; stroke-miterlimit: 10; fill: #3942ed; fill-rule: nonzero; opacity: 1;" transform="  matrix(1 0 0 1 0 0) "/>
  <polygon points="210.73,8.08 120.19,8.08 107.25,82.58 107.25,137.43 206.42,137.43 206.42,83.54 " style="stroke: none; stroke-width: 1; stroke-dasharray: none; stroke-linecap: butt; stroke-linejoin: miter; stroke-miterlimit: 10; fill: #FFFFFF; fill-rule: nonzero; opacity: 1;" transform="  matrix(1 0 0 1 0 0) "/>
  <polygon points="391.81,8.08 301.27,8.08 305.58,83.54 305.58,137.43 404.75,137.43 404.75,82.58 " style="stroke: none; stroke-width: 1; stroke-dasharray: none; stroke-linecap: butt; stroke-linejoin: miter; stroke-miterlimit: 10; fill: #FFFFFF; fill-rule: nonzero; opacity: 1;" transform="  matrix(1 0 0 1 0 0) "/>
  <rect x="40.42" y="137.43" rx="0" ry="0" width="431.16" height="366.48" style="stroke: none; stroke-width: 1; stroke-dasharray: none; stroke-linecap: butt; stroke-linejoin: miter; stroke-miterlimit: 10; fill: #f0245e; fill-rule: nonzero; opacity: 1;" transform=" matrix(1 0 0 1 0 0) "/>
  <rect x="206.42" y="83.54" rx="0" ry="0" width="99.17" height="53.9" style="stroke: none; stroke-width: 1; stroke-dasharray: none; stroke-linecap: butt; stroke-linejoin: miter; stroke-miterlimit: 10; fill: #CC4C37; fill-rule: nonzero; opacity: 1;" transform=" matrix(1 0 0 1 0 0) "/>
  <rect x="8.08" y="83.54" rx="0" ry="0" width="99.17" height="53.9" style="stroke: none; stroke-width: 1; stroke-dasharray: none; stroke-linecap: butt; stroke-linejoin: miter; stroke-miterlimit: 10; fill: #CC4C37; fill-rule: nonzero; opacity: 1;" transform=" matrix(1 0 0 1 0 0) "/>
  <rect x="404.75" y="83.54" rx="0" ry="0" width="99.17" height="53.9" style="stroke: none; stroke-width: 1; stroke-dasharray: none; stroke-linecap: butt; stroke-linejoin: miter; stroke-miterlimit: 10; fill: #CC4C37; fill-rule: nonzero; opacity: 1;" transform=" matrix(1 0 0 1 0 0) "/>
  <rect x="107.25" y="83.54" rx="0" ry="0" width="99.17" height="53.9" style="stroke: none; stroke-width: 1; stroke-dasharray: none; stroke-linecap: butt; stroke-linejoin: miter; stroke-miterlimit: 10; fill: #E0E0E0; fill-rule: nonzero; opacity: 1;" transform=" matrix(1 0 0 1 0 0) "/>
  <rect x="305.58" y="83.54" rx="0" ry="0" width="99.17" height="53.9" style="stroke: none; stroke-width: 1; stroke-dasharray: none; stroke-linecap: butt; stroke-linejoin: miter; stroke-miterlimit: 10; fill: #E0E0E0; fill-rule: nonzero; opacity: 1;" transform=" matrix(1 0 0 1 0 0) "/>
  <rect x="40.42" y="137.43" rx="0" ry="0" width="431.16" height="43.12" style="stroke: none; stroke-width: 1; stroke-dasharray: none; stroke-linecap: butt; stroke-linejoin: miter; stroke-miterlimit: 10; fill: #4DA39B; fill-rule: nonzero; opacity: 1;" transform=" matrix(1 0 0 1 0 0) "/>
  <path d="M 80.842 309.895 H 64.674 v -17.246 h 16.168 V 309.895 z M 80.842 276.48 H 64.674 v -85.154 h 16.168 V 276.48 z" style="stroke: none; stroke-width: 1; stroke-dasharray: none; stroke-linecap: butt; stroke-linejoin: miter; stroke-miterlimit: 10; fill: #FFFFFF; fill-rule: nonzero; opacity: 1;" transform=" matrix(1 0 0 1 0 0) " stroke-linecap="round" />
  <path d="M 458.105 309.895 h -16.168 v -17.246 h 16.168 V 309.895 z M 458.105 276.48 h -16.168 v -85.154 h 16.168 V 276.48 z" style="stroke: none; stroke-width: 1; stroke-dasharray: none; stroke-linecap: butt; stroke-linejoin: miter; stroke-miterlimit: 10; fill: #FFFFFF; fill-rule: nonzero; opacity: 1;" transform=" matrix(1 0 0 1 0 0) " stroke-linecap="round" />
  <path d="M 512 145.516 V 80.472 L 488.412 0 H 23.588 L 0 80.472 v 65.043 h 32.337 v 350.316 H 8.084 V 512 h 24.253 h 215.579 h 16.168 h 215.579 h 24.253 v -16.168 h -24.253 V 145.516 H 512 z M 495.832 82.793 v 46.554 h -16.168 h -66.829 V 81.889 l -11.41 -65.72 h 74.879 L 495.832 82.793 z M 126.987 16.168 h 75.181 l -3.823 66.907 l -0.01 46.272 h -83 V 83.282 L 126.987 16.168 z M 214.501 83.769 l 3.863 -67.6 h 75.272 l 3.863 67.6 v 45.579 h -33.415 h -16.168 h -33.415 V 83.769 z M 309.83 16.168 h 75.183 l 11.652 67.114 v 46.065 h -82.998 V 83.537 L 309.83 16.168 z M 16.168 129.347 V 82.793 l 19.528 -66.625 h 74.879 l -11.41 65.72 v 47.459 H 32.337 H 16.168 z M 48.505 495.832 V 145.516 h 199.411 v 350.316 H 48.505 z M 463.495 495.832 H 264.084 V 145.516 h 199.411 V 495.832 z" style="stroke: none; stroke-width: 1; stroke-dasharray: none; stroke-linecap: butt; stroke-linejoin: miter; stroke-miterlimit: 10; fill: rgb(0,0,0); fill-rule: nonzero; opacity: 1;" transform=" matrix(1 0 0 1 0 0) " stroke-linecap="round" />
  <path d="M 328.758 363.789 v -97.011 c 0 -10.401 -8.463 -18.863 -18.863 -18.863 h -21.558 v 16.168 h 21.558 c 1.486 0 2.695 1.208 2.695 2.695 v 97.011 c 0 1.486 -1.208 2.695 -2.695 2.695 h -21.558 v 16.168 h 21.558 C 320.295 382.653 328.758 374.19 328.758 363.789 z" style="stroke: none; stroke-width: 1; stroke-dasharray: none; stroke-linecap: butt; stroke-linejoin: miter; stroke-miterlimit: 10; fill: rgb(0,0,0); fill-rule: nonzero; opacity: 1;" transform=" matrix(1 0 0 1 0 0) " stroke-linecap="round" />
  <path d="M 183.242 266.779 v 97.011 c 0 10.401 8.463 18.863 18.863 18.863 h 21.558 v -16.168 h -21.558 c -1.486 0 -2.695 -1.208 -2.695 -2.695 v -97.011 c 0 -1.486 1.208 -2.695 2.695 -2.695 h 21.558 v -16.168 h -21.558 C 191.705 247.916 183.242 256.378 183.242 266.779 z" style="stroke: none; stroke-width: 1; stroke-dasharray: none; stroke-linecap: butt; stroke-linejoin: miter; stroke-miterlimit: 10; fill: rgb(0,0,0); fill-rule: nonzero; opacity: 1;" transform=" matrix(1 0 0 1 0 0) " stroke-linecap="round" />
  <rect x="137.43" y="463.5" rx="0" ry="0" width="16.17" height="16.17" style="stroke: none; stroke-width: 1; stroke-dasharray: none; stroke-linecap: butt; stroke-linejoin: miter; stroke-miterlimit: 10; fill: rgb(0,0,0); fill-rule: nonzero; opacity: 1;" transform=" matrix(1 0 0 1 0 0) "/>
  <rect x="72.76" y="463.5" rx="0" ry="0" width="16.17" height="16.17" style="stroke: none; stroke-width: 1; stroke-dasharray: none; stroke-linecap: butt; stroke-linejoin: miter; stroke-miterlimit: 10; fill: rgb(0,0,0); fill-rule: nonzero; opacity: 1;" transform=" matrix(1 0 0 1 0 0) "/>
  <rect x="105.09" y="463.5" rx="0" ry="0" width="16.17" height="16.17" style="stroke: none; stroke-width: 1; stroke-dasharray: none; stroke-linecap: butt; stroke-linejoin: miter; stroke-miterlimit: 10; fill: rgb(0,0,0); fill-rule: nonzero; opacity: 1;" transform=" matrix(1 0 0 1 0 0) "/>
  <rect x="202.1" y="463.5" rx="0" ry="0" width="16.17" height="16.17" style="stroke: none; stroke-width: 1; stroke-dasharray: none; stroke-linecap: butt; stroke-linejoin: miter; stroke-miterlimit: 10; fill: rgb(0,0,0); fill-rule: nonzero; opacity: 1;" transform=" matrix(1 0 0 1 0 0) "/>
  <rect x="169.77" y="463.5" rx="0" ry="0" width="16.17" height="16.17" style="stroke: none; stroke-width: 1; stroke-dasharray: none; stroke-linecap: butt; stroke-linejoin: miter; stroke-miterlimit: 10; fill: rgb(0,0,0); fill-rule: nonzero; opacity: 1;" transform=" matrix(1 0 0 1 0 0) "/>
  <rect x="288.34" y="463.5" rx="0" ry="0" width="16.17" height="16.17" style="stroke: none; stroke-width: 1; stroke-dasharray: none; stroke-linecap: butt; stroke-linejoin: miter; stroke-miterlimit: 10; fill: rgb(0,0,0); fill-rule: nonzero; opacity: 1;" transform=" matrix(1 0 0 1 0 0) "/>
  <rect x="320.67" y="463.5" rx="0" ry="0" width="16.17" height="16.17" style="stroke: none; stroke-width: 1; stroke-dasharray: none; stroke-linecap: butt; stroke-linejoin: miter; stroke-miterlimit: 10; fill: rgb(0,0,0); fill-rule: nonzero; opacity: 1;" transform=" matrix(1 0 0 1 0 0) "/>
  <rect x="417.68" y="463.5" rx="0" ry="0" width="16.17" height="16.17" style="stroke: none; stroke-width: 1; stroke-dasharray: none; stroke-linecap: butt; stroke-linejoin: miter; stroke-miterlimit: 10; fill: rgb(0,0,0); fill-rule: nonzero; opacity: 1;" transform=" matrix(1 0 0 1 0 0) "/>
  <rect x="385.35" y="463.5" rx="0" ry="0" width="16.17" height="16.17" style="stroke: none; stroke-width: 1; stroke-dasharray: none; stroke-linecap: butt; stroke-linejoin: miter; stroke-miterlimit: 10; fill: rgb(0,0,0); fill-rule: nonzero; opacity: 1;" transform=" matrix(1 0 0 1 0 0) "/>
  <rect x="353.01" y="463.5" rx="0" ry="0" width="16.17" height="16.17" style="stroke: none; stroke-width: 1; stroke-dasharray: none; stroke-linecap: butt; stroke-linejoin: miter; stroke-miterlimit: 10; fill: rgb(0,0,0); fill-rule: nonzero; opacity: 1;" transform=" matrix(1 0 0 1 0 0) "/>
</g>
</svg>